<?xml version="1.0" encoding="utf-8"?>
<!-- Generator: Adobe Illustrator 25.4.1, SVG Export Plug-In . SVG Version: 6.00 Build 0)  -->
<svg version="1.1" id="Layer_1" xmlns="http://www.w3.org/2000/svg" xmlns:xlink="http://www.w3.org/1999/xlink" x="0px" y="0px"
	 viewBox="0 0 24 24" style="enable-background:new 0 0 24 24;" xml:space="preserve">
<style type="text/css">
	.st0{fill-rule:evenodd;clip-rule:evenodd;fill:#FFFFFF;}
	.st1{fill-rule:evenodd;clip-rule:evenodd;fill:#EF483E;}
</style>
<path class="st0" d="M20,12c0,4.4-3.6,8-8,8c-4.4,0-8-3.6-8-8c0-4.4,3.6-8,8-8C16.4,4,20,7.6,20,12z M16,12c0,2.2-1.8,4-4,4
	c-2.2,0-4-1.8-4-4c0-2.2,1.8-4,4-4C14.2,8,16,9.8,16,12z"/>
<path class="st1" d="M20,12c0,4.4-3.6,8-8,8c-4.4,0-8-3.6-8-8c0-4.4,3.6-8,8-8C16.4,4,20,7.6,20,12z M16,12c0,2.2-1.8,4-4,4
	c-2.2,0-4-1.8-4-4c0-2.2,1.8-4,4-4C14.2,8,16,9.8,16,12z"/>
</svg>
